999
CitySim
0
SECTION
2
HEADER
9
$ACADVER
1
AC1500
9
$INSUNITS
70
6
0
ENDSEC
0
SECTION
 2
ENTITIES
 0
3DFACE
8
GROUND
62
2
 10
-21.4756908417
 20
4.8989443779
 30
0
 11
27.330904007
 21
56.9496841431
 31
0
 12
-25.3217983246
 22
56.9496841431
 32
0
 0
3DFACE
8
GROUND
62
2
 10
27.330904007
 20
56.9496841431
 30
0
 11
-21.4756908417
 21
4.8989443779
 31
0
 12
27.330904007
 22
4.8989443779
 32
0
 0
3DFACE
8
BUILDING_0
62
3
 10
-1.01842463017
 20
16.8810081482
 30
19.524723053
 11
-8
 21
24
 31
19.524723053
 12
-8
 22
16.8810081482
 32
19.524723053
 0
3DFACE
8
BUILDING_0
62
3
 10
-8
 20
24
 30
19.524723053
 11
-1.01842463017
 21
16.8810081482
 31
19.524723053
 12
-1.01842463017
 22
24
 32
19.524723053
 0
3DFACE
8
BUILDING_0
62
4
 10
-1.01842463017
 20
24
 30
0
 11
-8
 21
16.8810081482
 31
0
 12
-8
 22
24
 32
0
 0
3DFACE
8
BUILDING_0
62
4
 10
-8
 20
16.8810081482
 30
0
 11
-1.01842463017
 21
24
 31
0
 12
-1.01842463017
 22
16.8810081482
 32
0
 0
3DFACE
8
BUILDING_0
62
1
 10
-1.01842463017
 20
16.8810081482
 30
4.88118076324
 11
-8
 21
16.8810081482
 31
0
 12
-1.01842463017
 22
16.8810081482
 32
0
 0
3DFACE
8
BUILDING_0
62
1
 10
-8
 20
16.8810081482
 30
0
 11
-1.01842463017
 21
16.8810081482
 31
4.88118076324
 12
-8
 22
16.8810081482
 32
4.88118076324
 0
3DFACE
8
BUILDING_0
62
1
 10
-1.01842463017
 20
16.8810081482
 30
9.76236152649
 11
-8
 21
16.8810081482
 31
4.88118076324
 12
-1.01842463017
 22
16.8810081482
 32
4.88118076324
 0
3DFACE
8
BUILDING_0
62
1
 10
-8
 20
16.8810081482
 30
4.88118076324
 11
-1.01842463017
 21
16.8810081482
 31
9.76236152649
 12
-8
 22
16.8810081482
 32
9.76236152649
 0
3DFACE
8
BUILDING_0
62
1
 10
-1.01842463017
 20
16.8810081482
 30
14.6435422897
 11
-8
 21
16.8810081482
 31
9.76236152649
 12
-1.01842463017
 22
16.8810081482
 32
9.76236152649
 0
3DFACE
8
BUILDING_0
62
1
 10
-8
 20
16.8810081482
 30
9.76236152649
 11
-1.01842463017
 21
16.8810081482
 31
14.6435422897
 12
-8
 22
16.8810081482
 32
14.6435422897
 0
3DFACE
8
BUILDING_0
62
1
 10
-1.01842463017
 20
16.8810081482
 30
19.524723053
 11
-8
 21
16.8810081482
 31
14.6435422897
 12
-1.01842463017
 22
16.8810081482
 32
14.6435422897
 0
3DFACE
8
BUILDING_0
62
1
 10
-8
 20
16.8810081482
 30
14.6435422897
 11
-1.01842463017
 21
16.8810081482
 31
19.524723053
 12
-8
 22
16.8810081482
 32
19.524723053
 0
3DFACE
8
BUILDING_0
62
1
 10
-1.01842463017
 20
24
 30
0
 11
-1.01842463017
 21
16.8810081482
 31
4.88118076324
 12
-1.01842463017
 22
16.8810081482
 32
0
 0
3DFACE
8
BUILDING_0
62
1
 10
-1.01842463017
 20
16.8810081482
 30
4.88118076324
 11
-1.01842463017
 21
24
 31
0
 12
-1.01842463017
 22
24
 32
4.88118076324
 0
3DFACE
8
BUILDING_0
62
1
 10
-1.01842463017
 20
24
 30
4.88118076324
 11
-1.01842463017
 21
16.8810081482
 31
9.76236152649
 12
-1.01842463017
 22
16.8810081482
 32
4.88118076324
 0
3DFACE
8
BUILDING_0
62
1
 10
-1.01842463017
 20
16.8810081482
 30
9.76236152649
 11
-1.01842463017
 21
24
 31
4.88118076324
 12
-1.01842463017
 22
24
 32
9.76236152649
 0
3DFACE
8
BUILDING_0
62
1
 10
-1.01842463017
 20
24
 30
9.76236152649
 11
-1.01842463017
 21
16.8810081482
 31
14.6435422897
 12
-1.01842463017
 22
16.8810081482
 32
9.76236152649
 0
3DFACE
8
BUILDING_0
62
1
 10
-1.01842463017
 20
16.8810081482
 30
14.6435422897
 11
-1.01842463017
 21
24
 31
9.76236152649
 12
-1.01842463017
 22
24
 32
14.6435422897
 0
3DFACE
8
BUILDING_0
62
1
 10
-1.01842463017
 20
24
 30
14.6435422897
 11
-1.01842463017
 21
16.8810081482
 31
19.524723053
 12
-1.01842463017
 22
16.8810081482
 32
14.6435422897
 0
3DFACE
8
BUILDING_0
62
1
 10
-1.01842463017
 20
16.8810081482
 30
19.524723053
 11
-1.01842463017
 21
24
 31
14.6435422897
 12
-1.01842463017
 22
24
 32
19.524723053
 0
3DFACE
8
BUILDING_0
62
1
 10
-8
 20
24
 30
4.88118076324
 11
-1.01842463017
 21
24
 31
0
 12
-8
 22
24
 32
0
 0
3DFACE
8
BUILDING_0
62
1
 10
-1.01842463017
 20
24
 30
0
 11
-8
 21
24
 31
4.88118076324
 12
-1.01842463017
 22
24
 32
4.88118076324
 0
3DFACE
8
BUILDING_0
62
1
 10
-8
 20
24
 30
9.76236152649
 11
-1.01842463017
 21
24
 31
4.88118076324
 12
-8
 22
24
 32
4.88118076324
 0
3DFACE
8
BUILDING_0
62
1
 10
-1.01842463017
 20
24
 30
4.88118076324
 11
-8
 21
24
 31
9.76236152649
 12
-1.01842463017
 22
24
 32
9.76236152649
 0
3DFACE
8
BUILDING_0
62
1
 10
-8
 20
24
 30
14.6435422897
 11
-1.01842463017
 21
24
 31
9.76236152649
 12
-8
 22
24
 32
9.76236152649
 0
3DFACE
8
BUILDING_0
62
1
 10
-1.01842463017
 20
24
 30
9.76236152649
 11
-8
 21
24
 31
14.6435422897
 12
-1.01842463017
 22
24
 32
14.6435422897
 0
3DFACE
8
BUILDING_0
62
1
 10
-8
 20
24
 30
19.524723053
 11
-1.01842463017
 21
24
 31
14.6435422897
 12
-8
 22
24
 32
14.6435422897
 0
3DFACE
8
BUILDING_0
62
1
 10
-1.01842463017
 20
24
 30
14.6435422897
 11
-8
 21
24
 31
19.524723053
 12
-1.01842463017
 22
24
 32
19.524723053
 0
3DFACE
8
BUILDING_0
62
1
 10
-8
 20
24
 30
4.88118076324
 11
-8
 21
16.8810081482
 31
0
 12
-8
 22
16.8810081482
 32
4.88118076324
 0
3DFACE
8
BUILDING_0
62
1
 10
-8
 20
16.8810081482
 30
0
 11
-8
 21
24
 31
4.88118076324
 12
-8
 22
24
 32
0
 0
3DFACE
8
BUILDING_0
62
1
 10
-8
 20
24
 30
9.76236152649
 11
-8
 21
16.8810081482
 31
4.88118076324
 12
-8
 22
16.8810081482
 32
9.76236152649
 0
3DFACE
8
BUILDING_0
62
1
 10
-8
 20
16.8810081482
 30
4.88118076324
 11
-8
 21
24
 31
9.76236152649
 12
-8
 22
24
 32
4.88118076324
 0
3DFACE
8
BUILDING_0
62
1
 10
-8
 20
24
 30
14.6435422897
 11
-8
 21
16.8810081482
 31
9.76236152649
 12
-8
 22
16.8810081482
 32
14.6435422897
 0
3DFACE
8
BUILDING_0
62
1
 10
-8
 20
16.8810081482
 30
9.76236152649
 11
-8
 21
24
 31
14.6435422897
 12
-8
 22
24
 32
9.76236152649
 0
3DFACE
8
BUILDING_0
62
1
 10
-8
 20
24
 30
19.524723053
 11
-8
 21
16.8810081482
 31
14.6435422897
 12
-8
 22
16.8810081482
 32
19.524723053
 0
3DFACE
8
BUILDING_0
62
1
 10
-8
 20
16.8810081482
 30
14.6435422897
 11
-8
 21
24
 31
19.524723053
 12
-8
 22
24
 32
14.6435422897
 0
3DFACE
8
BUILDING_1
62
3
 10
-10.8733215332
 20
28
 30
7.20125770569
 11
-15
 21
32.0284309387
 31
7.20125770569
 12
-15
 22
28
 32
7.20125770569
 0
3DFACE
8
BUILDING_1
62
3
 10
-15
 20
32.0284309387
 30
7.20125770569
 11
-10.8733215332
 21
28
 31
7.20125770569
 12
-10.8733215332
 22
32.0284309387
 32
7.20125770569
 0
3DFACE
8
BUILDING_1
62
3
 10
-10.8733215332
 20
32.0284309387
 30
7.20125770569
 11
-15
 21
36.0568618774
 31
7.20125770569
 12
-15
 22
32.0284309387
 32
7.20125770569
 0
3DFACE
8
BUILDING_1
62
3
 10
-15
 20
36.0568618774
 30
7.20125770569
 11
-10.8733215332
 21
32.0284309387
 31
7.20125770569
 12
-10.8733215332
 22
36.0568618774
 32
7.20125770569
 0
3DFACE
8
BUILDING_1
62
3
 10
-6.74664354324
 20
28
 30
7.20125770569
 11
-10.8733215332
 21
32.0284309387
 31
7.20125770569
 12
-10.8733215332
 22
28
 32
7.20125770569
 0
3DFACE
8
BUILDING_1
62
3
 10
-10.8733215332
 20
32.0284309387
 30
7.20125770569
 11
-6.74664354324
 21
28
 31
7.20125770569
 12
-6.74664354324
 22
32.0284309387
 32
7.20125770569
 0
3DFACE
8
BUILDING_1
62
3
 10
-6.74664354324
 20
32.0284309387
 30
7.20125770569
 11
-10.8733215332
 21
36.0568618774
 31
7.20125770569
 12
-10.8733215332
 22
32.0284309387
 32
7.20125770569
 0
3DFACE
8
BUILDING_1
62
3
 10
-10.8733215332
 20
36.0568618774
 30
7.20125770569
 11
-6.74664354324
 21
32.0284309387
 31
7.20125770569
 12
-6.74664354324
 22
36.0568618774
 32
7.20125770569
 0
3DFACE
8
BUILDING_1
62
3
 10
-2.61996507645
 20
28
 30
7.20125770569
 11
-6.74664354324
 21
32.0284309387
 31
7.20125770569
 12
-6.74664354324
 22
28
 32
7.20125770569
 0
3DFACE
8
BUILDING_1
62
3
 10
-6.74664354324
 20
32.0284309387
 30
7.20125770569
 11
-2.61996507645
 21
28
 31
7.20125770569
 12
-2.61996507645
 22
32.0284309387
 32
7.20125770569
 0
3DFACE
8
BUILDING_1
62
3
 10
-2.61996507645
 20
32.0284309387
 30
7.20125770569
 11
-6.74664354324
 21
36.0568618774
 31
7.20125770569
 12
-6.74664354324
 22
32.0284309387
 32
7.20125770569
 0
3DFACE
8
BUILDING_1
62
3
 10
-6.74664354324
 20
36.0568618774
 30
7.20125770569
 11
-2.61996507645
 21
32.0284309387
 31
7.20125770569
 12
-2.61996507645
 22
36.0568618774
 32
7.20125770569
 0
3DFACE
8
BUILDING_1
62
3
 10
1.50671315193
 20
28
 30
7.20125770569
 11
-2.61996507645
 21
32.0284309387
 31
7.20125770569
 12
-2.61996507645
 22
28
 32
7.20125770569
 0
3DFACE
8
BUILDING_1
62
3
 10
-2.61996507645
 20
32.0284309387
 30
7.20125770569
 11
1.50671315193
 21
28
 31
7.20125770569
 12
1.50671315193
 22
32.0284309387
 32
7.20125770569
 0
3DFACE
8
BUILDING_1
62
3
 10
1.50671315193
 20
32.0284309387
 30
7.20125770569
 11
-2.61996507645
 21
36.0568618774
 31
7.20125770569
 12
-2.61996507645
 22
32.0284309387
 32
7.20125770569
 0
3DFACE
8
BUILDING_1
62
3
 10
-2.61996507645
 20
36.0568618774
 30
7.20125770569
 11
1.50671315193
 21
32.0284309387
 31
7.20125770569
 12
1.50671315193
 22
36.0568618774
 32
7.20125770569
 0
3DFACE
8
BUILDING_1
62
3
 10
5.63339138031
 20
28
 30
7.20125770569
 11
1.50671315193
 21
32.0284309387
 31
7.20125770569
 12
1.50671315193
 22
28
 32
7.20125770569
 0
3DFACE
8
BUILDING_1
62
3
 10
1.50671315193
 20
32.0284309387
 30
7.20125770569
 11
5.63339138031
 21
28
 31
7.20125770569
 12
5.63339138031
 22
32.0284309387
 32
7.20125770569
 0
3DFACE
8
BUILDING_1
62
3
 10
5.63339138031
 20
32.0284309387
 30
7.20125770569
 11
1.50671315193
 21
36.0568618774
 31
7.20125770569
 12
1.50671315193
 22
32.0284309387
 32
7.20125770569
 0
3DFACE
8
BUILDING_1
62
3
 10
1.50671315193
 20
36.0568618774
 30
7.20125770569
 11
5.63339138031
 21
32.0284309387
 31
7.20125770569
 12
5.63339138031
 22
36.0568618774
 32
7.20125770569
 0
3DFACE
8
BUILDING_1
62
3
 10
9.76006984711
 20
28
 30
7.20125770569
 11
5.63339138031
 21
32.0284309387
 31
7.20125770569
 12
5.63339138031
 22
28
 32
7.20125770569
 0
3DFACE
8
BUILDING_1
62
3
 10
5.63339138031
 20
32.0284309387
 30
7.20125770569
 11
9.76006984711
 21
28
 31
7.20125770569
 12
9.76006984711
 22
32.0284309387
 32
7.20125770569
 0
3DFACE
8
BUILDING_1
62
3
 10
9.76006984711
 20
32.0284309387
 30
7.20125770569
 11
5.63339138031
 21
36.0568618774
 31
7.20125770569
 12
5.63339138031
 22
32.0284309387
 32
7.20125770569
 0
3DFACE
8
BUILDING_1
62
3
 10
5.63339138031
 20
36.0568618774
 30
7.20125770569
 11
9.76006984711
 21
32.0284309387
 31
7.20125770569
 12
9.76006984711
 22
36.0568618774
 32
7.20125770569
 0
3DFACE
8
BUILDING_1
62
4
 10
-10.8733215332
 20
32.0284309387
 30
0
 11
-15
 21
28
 31
0
 12
-15
 22
32.0284309387
 32
0
 0
3DFACE
8
BUILDING_1
62
4
 10
-15
 20
28
 30
0
 11
-10.8733215332
 21
32.0284309387
 31
0
 12
-10.8733215332
 22
28
 32
0
 0
3DFACE
8
BUILDING_1
62
4
 10
-12
 20
36.0568618774
 30
0
 11
-15
 21
32.0284309387
 31
0
 12
-15
 22
36.0568618774
 32
0
 0
3DFACE
8
BUILDING_1
62
4
 10
-15
 20
32.0284309387
 30
0
 11
-12
 21
36.0568618774
 31
0
 12
-10.8733215332
 22
32.0284309387
 32
0
 0
3DFACE
8
BUILDING_1
62
4
 10
-10.8733215332
 20
32.0284309387
 30
0
 11
-12
 21
36.0568618774
 31
0
 12
-10.8733215332
 22
36.0568618774
 32
0
 0
3DFACE
8
BUILDING_1
62
4
 10
-6.74664354324
 20
32.0284309387
 30
0
 11
-10.8733215332
 21
28
 31
0
 12
-10.8733215332
 22
32.0284309387
 32
0
 0
3DFACE
8
BUILDING_1
62
4
 10
-10.8733215332
 20
28
 30
0
 11
-6.74664354324
 21
32.0284309387
 31
0
 12
-6.74664354324
 22
28
 32
0
 0
3DFACE
8
BUILDING_1
62
4
 10
-7
 20
36.0568618774
 30
0
 11
-10.8733215332
 21
32.0284309387
 31
0
 12
-10.8733215332
 22
36.0568618774
 32
0
 0
3DFACE
8
BUILDING_1
62
4
 10
-10.8733215332
 20
32.0284309387
 30
0
 11
-7
 21
36.0568618774
 31
0
 12
-6.74664354324
 22
32.0284309387
 32
0
 0
3DFACE
8
BUILDING_1
62
4
 10
-6.74664354324
 20
32.0284309387
 30
0
 11
-7
 21
36.0568618774
 31
0
 12
-6.74664354324
 22
36.0568618774
 32
0
 0
3DFACE
8
BUILDING_1
62
4
 10
-2.61996507645
 20
32.0284309387
 30
0
 11
-6.74664354324
 21
28
 31
0
 12
-6.74664354324
 22
32.0284309387
 32
0
 0
3DFACE
8
BUILDING_1
62
4
 10
-6.74664354324
 20
28
 30
0
 11
-2.61996507645
 21
32.0284309387
 31
0
 12
-2.61996507645
 22
28
 32
0
 0
3DFACE
8
BUILDING_1
62
4
 10
-2.61996507645
 20
36.0568618774
 30
0
 11
-6.74664354324
 21
32.0284309387
 31
0
 12
-6.74664354324
 22
36.0568618774
 32
0
 0
3DFACE
8
BUILDING_1
62
4
 10
-6.74664354324
 20
32.0284309387
 30
0
 11
-2.61996507645
 21
36.0568618774
 31
0
 12
-2.61996507645
 22
32.0284309387
 32
0
 0
3DFACE
8
BUILDING_1
62
4
 10
1.50671315193
 20
32.0284309387
 30
0
 11
-2.61996507645
 21
28
 31
0
 12
-2.61996507645
 22
32.0284309387
 32
0
 0
3DFACE
8
BUILDING_1
62
4
 10
-2.61996507645
 20
28
 30
0
 11
1.50671315193
 21
32.0284309387
 31
0
 12
1.50671315193
 22
28
 32
0
 0
3DFACE
8
BUILDING_1
62
4
 10
-2
 20
36.0568618774
 30
0
 11
-2.61996507645
 21
32.0284309387
 31
0
 12
-2.61996507645
 22
36.0568618774
 32
0
 0
3DFACE
8
BUILDING_1
62
4
 10
-2.61996507645
 20
32.0284309387
 30
0
 11
-2
 21
36.0568618774
 31
0
 12
1.50671315193
 22
32.0284309387
 32
0
 0
3DFACE
8
BUILDING_1
62
4
 10
1.50671315193
 20
32.0284309387
 30
0
 11
-2
 21
36.0568618774
 31
0
 12
1.50671315193
 22
36.0568618774
 32
0
 0
3DFACE
8
BUILDING_1
62
4
 10
5.63339138031
 20
32.0284309387
 30
0
 11
1.50671315193
 21
28
 31
0
 12
1.50671315193
 22
32.0284309387
 32
0
 0
3DFACE
8
BUILDING_1
62
4
 10
1.50671315193
 20
28
 30
0
 11
5.63339138031
 21
32.0284309387
 31
0
 12
5.63339138031
 22
28
 32
0
 0
3DFACE
8
BUILDING_1
62
4
 10
5.63339138031
 20
36.0568618774
 30
0
 11
1.50671315193
 21
32.0284309387
 31
0
 12
1.50671315193
 22
36.0568618774
 32
0
 0
3DFACE
8
BUILDING_1
62
4
 10
1.50671315193
 20
32.0284309387
 30
0
 11
5.63339138031
 21
36.0568618774
 31
0
 12
5.63339138031
 22
32.0284309387
 32
0
 0
3DFACE
8
BUILDING_1
62
4
 10
9.76006984711
 20
32.0284309387
 30
0
 11
5.63339138031
 21
28
 31
0
 12
5.63339138031
 22
32.0284309387
 32
0
 0
3DFACE
8
BUILDING_1
62
4
 10
5.63339138031
 20
28
 30
0
 11
9.76006984711
 21
32.0284309387
 31
0
 12
9.76006984711
 22
28
 32
0
 0
3DFACE
8
BUILDING_1
62
4
 10
9.76006984711
 20
36.0568618774
 30
0
 11
5.63339138031
 21
32.0284309387
 31
0
 12
5.63339138031
 22
36.0568618774
 32
0
 0
3DFACE
8
BUILDING_1
62
4
 10
5.63339138031
 20
32.0284309387
 30
0
 11
9.76006984711
 21
36.0568618774
 31
0
 12
9.76006984711
 22
32.0284309387
 32
0
 0
3DFACE
8
BUILDING_1
62
1
 10
-10.8733215332
 20
28
 30
7.20125770569
 11
-15
 21
28
 31
0
 12
-10.8733215332
 22
28
 32
0
 0
3DFACE
8
BUILDING_1
62
1
 10
-15
 20
28
 30
0
 11
-10.8733215332
 21
28
 31
7.20125770569
 12
-15
 22
28
 32
7.20125770569
 0
3DFACE
8
BUILDING_1
62
1
 10
-6.74664354324
 20
28
 30
7.20125770569
 11
-10.8733215332
 21
28
 31
0
 12
-6.74664354324
 22
28
 32
0
 0
3DFACE
8
BUILDING_1
62
1
 10
-10.8733215332
 20
28
 30
0
 11
-6.74664354324
 21
28
 31
7.20125770569
 12
-10.8733215332
 22
28
 32
7.20125770569
 0
3DFACE
8
BUILDING_1
62
1
 10
-2.61996507645
 20
28
 30
7.20125770569
 11
-6.74664354324
 21
28
 31
0
 12
-2.61996507645
 22
28
 32
0
 0
3DFACE
8
BUILDING_1
62
1
 10
-6.74664354324
 20
28
 30
0
 11
-2.61996507645
 21
28
 31
7.20125770569
 12
-6.74664354324
 22
28
 32
7.20125770569
 0
3DFACE
8
BUILDING_1
62
1
 10
1.50671315193
 20
28
 30
7.20125770569
 11
-2.61996507645
 21
28
 31
0
 12
1.50671315193
 22
28
 32
0
 0
3DFACE
8
BUILDING_1
62
1
 10
-2.61996507645
 20
28
 30
0
 11
1.50671315193
 21
28
 31
7.20125770569
 12
-2.61996507645
 22
28
 32
7.20125770569
 0
3DFACE
8
BUILDING_1
62
1
 10
5.63339138031
 20
28
 30
7.20125770569
 11
1.50671315193
 21
28
 31
0
 12
5.63339138031
 22
28
 32
0
 0
3DFACE
8
BUILDING_1
62
1
 10
1.50671315193
 20
28
 30
0
 11
5.63339138031
 21
28
 31
7.20125770569
 12
1.50671315193
 22
28
 32
7.20125770569
 0
3DFACE
8
BUILDING_1
62
1
 10
9.76006984711
 20
28
 30
7.20125770569
 11
5.63339138031
 21
28
 31
0
 12
9.76006984711
 22
28
 32
0
 0
3DFACE
8
BUILDING_1
62
1
 10
5.63339138031
 20
28
 30
0
 11
9.76006984711
 21
28
 31
7.20125770569
 12
5.63339138031
 22
28
 32
7.20125770569
 0
3DFACE
8
BUILDING_1
62
1
 10
9.76006984711
 20
32.0284309387
 30
0
 11
9.76006984711
 21
28
 31
7.20125770569
 12
9.76006984711
 22
28
 32
0
 0
3DFACE
8
BUILDING_1
62
1
 10
9.76006984711
 20
28
 30
7.20125770569
 11
9.76006984711
 21
32.0284309387
 31
0
 12
9.76006984711
 22
32.0284309387
 32
7.20125770569
 0
3DFACE
8
BUILDING_1
62
1
 10
9.76006984711
 20
36.0568618774
 30
0
 11
9.76006984711
 21
32.0284309387
 31
7.20125770569
 12
9.76006984711
 22
32.0284309387
 32
0
 0
3DFACE
8
BUILDING_1
62
1
 10
9.76006984711
 20
32.0284309387
 30
7.20125770569
 11
9.76006984711
 21
36.0568618774
 31
0
 12
9.76006984711
 22
36.0568618774
 32
7.20125770569
 0
3DFACE
8
BUILDING_1
62
1
 10
5.63339138031
 20
36.0568618774
 30
7.20125770569
 11
9.76006984711
 21
36.0568618774
 31
0
 12
5.63339138031
 22
36.0568618774
 32
0
 0
3DFACE
8
BUILDING_1
62
1
 10
9.76006984711
 20
36.0568618774
 30
0
 11
5.63339138031
 21
36.0568618774
 31
7.20125770569
 12
9.76006984711
 22
36.0568618774
 32
7.20125770569
 0
3DFACE
8
BUILDING_1
62
1
 10
1.50671315193
 20
36.0568618774
 30
7.20125770569
 11
5.63339138031
 21
36.0568618774
 31
0
 12
1.50671315193
 22
36.0568618774
 32
0
 0
3DFACE
8
BUILDING_1
62
1
 10
5.63339138031
 20
36.0568618774
 30
0
 11
1.50671315193
 21
36.0568618774
 31
7.20125770569
 12
5.63339138031
 22
36.0568618774
 32
7.20125770569
 0
3DFACE
8
BUILDING_1
62
1
 10
-2
 20
36.0568618774
 30
4
 11
1.50671315193
 21
36.0568618774
 31
0
 12
-2
 22
36.0568618774
 32
0
 0
3DFACE
8
BUILDING_1
62
1
 10
1.50671315193
 20
36.0568618774
 30
7.20125770569
 11
1.50671315193
 21
36.0568618774
 31
0
 12
-2
 22
36.0568618774
 32
4
 0
3DFACE
8
BUILDING_1
62
1
 10
1.50671315193
 20
36.0568618774
 30
7.20125770569
 11
-2
 21
36.0568618774
 31
4
 12
-2.61996507645
 22
36.0568618774
 32
7.20125770569
 0
3DFACE
8
BUILDING_1
62
1
 10
-6.74664354324
 20
36.0568618774
 30
7.20125770569
 11
-2
 21
36.0568618774
 31
4
 12
-5.33333349228
 22
36.0568618774
 32
4
 0
3DFACE
8
BUILDING_1
62
1
 10
-2
 20
36.0568618774
 30
4
 11
-6.74664354324
 21
36.0568618774
 31
7.20125770569
 12
-2.61996507645
 22
36.0568618774
 32
7.20125770569
 0
3DFACE
8
BUILDING_1
62
1
 10
-12
 20
36.0568618774
 30
4
 11
-12
 21
36.0568618774
 31
0
 12
-15
 22
36.0568618774
 32
0
 0
3DFACE
8
BUILDING_1
62
1
 10
-10.8733215332
 20
36.0568618774
 30
7.20125770569
 11
-5.33333349228
 21
36.0568618774
 31
4
 12
-12
 22
36.0568618774
 32
4
 0
3DFACE
8
BUILDING_1
62
1
 10
-5.33333349228
 20
36.0568618774
 30
4
 11
-10.8733215332
 21
36.0568618774
 31
7.20125770569
 12
-6.74664354324
 22
36.0568618774
 32
7.20125770569
 0
3DFACE
8
BUILDING_1
62
1
 10
-15
 20
36.0568618774
 30
7.20125770569
 11
-12
 21
36.0568618774
 31
4
 12
-15
 22
36.0568618774
 32
0
 0
3DFACE
8
BUILDING_1
62
1
 10
-10.8733215332
 20
36.0568618774
 30
7.20125770569
 11
-12
 21
36.0568618774
 31
4
 12
-15
 22
36.0568618774
 32
7.20125770569
 0
3DFACE
8
BUILDING_1
62
1
 10
-15
 20
36.0568618774
 30
7.20125770569
 11
-15
 21
32.0284309387
 31
0
 12
-15
 22
32.0284309387
 32
7.20125770569
 0
3DFACE
8
BUILDING_1
62
1
 10
-15
 20
32.0284309387
 30
0
 11
-15
 21
36.0568618774
 31
7.20125770569
 12
-15
 22
36.0568618774
 32
0
 0
3DFACE
8
BUILDING_1
62
1
 10
-15
 20
32.0284309387
 30
7.20125770569
 11
-15
 21
28
 31
0
 12
-15
 22
28
 32
7.20125770569
 0
3DFACE
8
BUILDING_1
62
1
 10
-15
 20
28
 30
0
 11
-15
 21
32.0284309387
 31
7.20125770569
 12
-15
 22
32.0284309387
 32
0
 0
3DFACE
8
BUILDING_2
62
3
 10
-7
 20
36.0568618774
 30
4
 11
-12
 21
41.5284309387
 31
4
 12
-12
 22
36.0568618774
 32
4
 0
3DFACE
8
BUILDING_2
62
3
 10
-12
 20
41.5284309387
 30
4
 11
-7
 21
36.0568618774
 31
4
 12
-7
 22
41.5284309387
 32
4
 0
3DFACE
8
BUILDING_2
62
3
 10
-7
 20
41.5284309387
 30
4
 11
-12
 21
47
 31
4
 12
-12
 22
41.5284309387
 32
4
 0
3DFACE
8
BUILDING_2
62
3
 10
-12
 20
47
 30
4
 11
-7
 21
41.5284309387
 31
4
 12
-7
 22
47
 32
4
 0
3DFACE
8
BUILDING_2
62
3
 10
-2
 20
36.0568618774
 30
4
 11
-7
 21
41.5284309387
 31
4
 12
-7
 22
36.0568618774
 32
4
 0
3DFACE
8
BUILDING_2
62
3
 10
-7
 20
41.5284309387
 30
4
 11
-2
 21
36.0568618774
 31
4
 12
-2
 22
41.5284309387
 32
4
 0
3DFACE
8
BUILDING_2
62
3
 10
-2
 20
41.5284309387
 30
4
 11
-7
 21
47
 31
4
 12
-7
 22
41.5284309387
 32
4
 0
3DFACE
8
BUILDING_2
62
3
 10
-7
 20
47
 30
4
 11
-2
 21
41.5284309387
 31
4
 12
-2
 22
47
 32
4
 0
3DFACE
8
BUILDING_2
62
4
 10
-7
 20
41.5284309387
 30
0
 11
-12
 21
36.0568618774
 31
0
 12
-12
 22
41.5284309387
 32
0
 0
3DFACE
8
BUILDING_2
62
4
 10
-12
 20
36.0568618774
 30
0
 11
-7
 21
41.5284309387
 31
0
 12
-7
 22
36.0568618774
 32
0
 0
3DFACE
8
BUILDING_2
62
4
 10
-7
 20
47
 30
0
 11
-12
 21
41.5284309387
 31
0
 12
-12
 22
47
 32
0
 0
3DFACE
8
BUILDING_2
62
4
 10
-12
 20
41.5284309387
 30
0
 11
-7
 21
47
 31
0
 12
-7
 22
41.5284309387
 32
0
 0
3DFACE
8
BUILDING_2
62
4
 10
-2
 20
41.5284309387
 30
0
 11
-7
 21
36.0568618774
 31
0
 12
-7
 22
41.5284309387
 32
0
 0
3DFACE
8
BUILDING_2
62
4
 10
-7
 20
36.0568618774
 30
0
 11
-2
 21
41.5284309387
 31
0
 12
-2
 22
36.0568618774
 32
0
 0
3DFACE
8
BUILDING_2
62
4
 10
-2
 20
47
 30
0
 11
-7
 21
41.5284309387
 31
0
 12
-7
 22
47
 32
0
 0
3DFACE
8
BUILDING_2
62
4
 10
-7
 20
41.5284309387
 30
0
 11
-2
 21
47
 31
0
 12
-2
 22
41.5284309387
 32
0
 0
3DFACE
8
BUILDING_2
62
1
 10
-2
 20
41.5284309387
 30
0
 11
-2
 21
36.0568618774
 31
4
 12
-2
 22
36.0568618774
 32
0
 0
3DFACE
8
BUILDING_2
62
1
 10
-2
 20
36.0568618774
 30
4
 11
-2
 21
41.5284309387
 31
0
 12
-2
 22
41.5284309387
 32
4
 0
3DFACE
8
BUILDING_2
62
1
 10
-2
 20
47
 30
0
 11
-2
 21
41.5284309387
 31
4
 12
-2
 22
41.5284309387
 32
0
 0
3DFACE
8
BUILDING_2
62
1
 10
-2
 20
41.5284309387
 30
4
 11
-2
 21
47
 31
0
 12
-2
 22
47
 32
4
 0
3DFACE
8
BUILDING_2
62
1
 10
-7
 20
47
 30
4
 11
-2
 21
47
 31
0
 12
-7
 22
47
 32
0
 0
3DFACE
8
BUILDING_2
62
1
 10
-2
 20
47
 30
0
 11
-7
 21
47
 31
4
 12
-2
 22
47
 32
4
 0
3DFACE
8
BUILDING_2
62
1
 10
-12
 20
47
 30
4
 11
-7
 21
47
 31
0
 12
-12
 22
47
 32
0
 0
3DFACE
8
BUILDING_2
62
1
 10
-7
 20
47
 30
0
 11
-12
 21
47
 31
4
 12
-7
 22
47
 32
4
 0
3DFACE
8
BUILDING_2
62
1
 10
-12
 20
47
 30
4
 11
-12
 21
41.5284309387
 31
0
 12
-12
 22
41.5284309387
 32
4
 0
3DFACE
8
BUILDING_2
62
1
 10
-12
 20
41.5284309387
 30
0
 11
-12
 21
47
 31
4
 12
-12
 22
47
 32
0
 0
3DFACE
8
BUILDING_2
62
1
 10
-12
 20
41.5284309387
 30
4
 11
-12
 21
36.0568618774
 31
0
 12
-12
 22
36.0568618774
 32
4
 0
3DFACE
8
BUILDING_2
62
1
 10
-12
 20
36.0568618774
 30
0
 11
-12
 21
41.5284309387
 31
4
 12
-12
 22
41.5284309387
 32
0
 0
ENDSEC
 0
EOF
